<svg xmlns="http://www.w3.org/2000/svg" xmlns:xlink="http://www.w3.org/1999/xlink" width="500" zoomAndPan="magnify" viewBox="0 0 375 374.999991" height="500" preserveAspectRatio="xMidYMid meet" version="1.0"><defs><g/><clipPath id="id1"><path d="M 109.636719 134 L 223.636719 134 L 223.636719 178.464844 L 109.636719 178.464844 Z M 109.636719 134 " clip-rule="nonzero"/></clipPath></defs><path fill="#ff9a00" d="M 187.382812 110.761719 C 163.359375 110.761719 143.882812 130.234375 143.882812 154.261719 C 143.882812 178.285156 163.359375 197.761719 187.382812 197.761719 C 211.410156 197.761719 230.882812 178.285156 230.882812 154.261719 C 230.882812 130.234375 211.410156 110.761719 187.382812 110.761719 " fill-opacity="1" fill-rule="nonzero"/><g clip-path="url(#id1)"><path fill="#000000" d="M 154.769531 155.613281 L 144.515625 151.214844 C 144.515625 150.273438 144.339844 149.332031 143.980469 148.4375 C 143.246094 146.605469 141.855469 145.164062 140.054688 144.375 L 120.359375 134.953125 L 120.25 134.902344 C 119.316406 134.5 118.328125 134.296875 117.316406 134.296875 C 114.328125 134.296875 111.636719 136.074219 110.460938 138.824219 C 109.675781 140.660156 109.652344 142.6875 110.390625 144.539062 C 111.125 146.371094 112.515625 147.8125 114.316406 148.601562 L 134.011719 158.023438 L 134.121094 158.074219 C 135.058594 158.472656 136.042969 158.675781 137.054688 158.675781 C 139.011719 158.675781 140.832031 157.90625 142.191406 156.605469 L 152.847656 161.175781 C 154.140625 170.894531 162.453125 178.425781 172.503906 178.425781 L 203.847656 178.425781 C 214.792969 178.425781 223.695312 169.507812 223.695312 158.546875 L 223.695312 155.609375 L 154.769531 155.609375 Z M 138.519531 151.835938 C 138.1875 152.605469 137.261719 153.003906 136.472656 152.691406 L 116.796875 143.28125 L 116.6875 143.230469 C 116.296875 143.0625 115.996094 142.753906 115.835938 142.355469 C 115.679688 141.960938 115.683594 141.53125 115.851562 141.136719 C 116.179688 140.367188 117.105469 139.96875 117.898438 140.285156 L 137.574219 149.695312 L 137.683594 149.746094 C 138.070312 149.914062 138.375 150.222656 138.53125 150.617188 C 138.691406 151.011719 138.6875 151.445312 138.519531 151.835938 Z M 203.847656 172.550781 L 172.503906 172.550781 C 165.800781 172.550781 160.183594 167.800781 158.832031 161.484375 L 217.519531 161.484375 C 216.167969 167.800781 210.550781 172.550781 203.847656 172.550781 Z M 203.847656 172.550781 " fill-opacity="1" fill-rule="nonzero"/></g><path fill="#000000" d="M 172.9375 146.78125 C 174.75 146.78125 176.558594 146.78125 178.367188 146.78125 C 184.882812 138.855469 171.851562 130.929688 178.367188 123 C 176.558594 123 174.75 123 172.9375 123 C 166.425781 130.929688 179.453125 138.855469 172.9375 146.78125 Z M 172.9375 146.78125 " fill-opacity="1" fill-rule="nonzero"/><path fill="#000000" d="M 186.066406 146.78125 C 187.875 146.78125 189.6875 146.78125 191.496094 146.78125 C 198.011719 138.855469 184.980469 130.929688 191.496094 123 C 189.6875 123 187.875 123 186.066406 123 C 179.550781 130.929688 192.582031 138.855469 186.066406 146.78125 Z M 186.066406 146.78125 " fill-opacity="1" fill-rule="nonzero"/><path fill="#000000" d="M 199.195312 146.78125 C 201.003906 146.78125 202.8125 146.78125 204.625 146.78125 C 211.136719 138.855469 198.109375 130.929688 204.625 123 C 202.8125 123 201.003906 123 199.195312 123 C 192.679688 130.929688 205.710938 138.855469 199.195312 146.78125 Z M 199.195312 146.78125 " fill-opacity="1" fill-rule="nonzero"/><g fill="#22c201" fill-opacity="1"><g transform="translate(108.359741, 234.499525)"><g><path d="M 18 -4.34375 L 7.703125 -4.34375 L 5.984375 0 L -0.171875 0 L 9.984375 -23.546875 L 16.140625 -23.546875 L 26.078125 0 L 19.6875 0 Z M 16.25 -8.875 L 12.890625 -17.59375 L 9.453125 -8.875 Z M 16.25 -8.875 "/></g></g></g><g fill="#22c201" fill-opacity="1"><g transform="translate(143.78909, 234.499525)"><g><path d="M 11.40625 -23.8125 C 14.925781 -23.8125 18.019531 -22.9375 20.6875 -21.1875 L 18.4375 -16.515625 C 17.195312 -17.234375 15.867188 -17.820312 14.453125 -18.28125 C 13.046875 -18.738281 11.863281 -18.96875 10.90625 -18.96875 C 9.175781 -18.96875 8.3125 -18.394531 8.3125 -17.25 C 8.3125 -16.507812 8.734375 -15.914062 9.578125 -15.46875 C 10.429688 -15.019531 11.46875 -14.632812 12.6875 -14.3125 C 13.914062 -13.988281 15.140625 -13.597656 16.359375 -13.140625 C 17.585938 -12.679688 18.625 -11.9375 19.46875 -10.90625 C 20.320312 -9.875 20.75 -8.570312 20.75 -7 C 20.75 -4.726562 19.863281 -2.957031 18.09375 -1.6875 C 16.320312 -0.425781 14.070312 0.203125 11.34375 0.203125 C 9.382812 0.203125 7.453125 -0.128906 5.546875 -0.796875 C 3.640625 -1.472656 1.984375 -2.394531 0.578125 -3.5625 L 2.890625 -8.171875 C 4.078125 -7.140625 5.476562 -6.289062 7.09375 -5.625 C 8.707031 -4.96875 10.144531 -4.640625 11.40625 -4.640625 C 12.363281 -4.640625 13.113281 -4.8125 13.65625 -5.15625 C 14.195312 -5.507812 14.46875 -6.019531 14.46875 -6.6875 C 14.46875 -7.34375 14.15625 -7.890625 13.53125 -8.328125 C 12.914062 -8.765625 12.148438 -9.085938 11.234375 -9.296875 C 10.316406 -9.515625 9.316406 -9.800781 8.234375 -10.15625 C 7.160156 -10.519531 6.164062 -10.910156 5.25 -11.328125 C 4.332031 -11.753906 3.5625 -12.429688 2.9375 -13.359375 C 2.320312 -14.296875 2.015625 -15.414062 2.015625 -16.71875 C 2.015625 -18.875 2.875 -20.59375 4.59375 -21.875 C 6.3125 -23.164062 8.582031 -23.8125 11.40625 -23.8125 Z M 11.40625 -23.8125 "/></g></g></g><g fill="#22c201" fill-opacity="1"><g transform="translate(174.979228, 234.499525)"><g><path d="M 14.5 -7.609375 L 14.5 0 L 8.546875 0 L 8.546875 -7.4375 L -0.171875 -23.546875 L 5.8125 -23.546875 L 11.5 -13.28125 L 17.0625 -23.546875 L 23.046875 -23.546875 Z M 14.5 -7.609375 "/></g></g></g><g fill="#22c201" fill-opacity="1"><g transform="translate(207.380562, 234.499525)"><g><path d="M 24.09375 0 L 18.8125 0 L 7.96875 -14.5 L 7.96875 0 L 2.359375 0 L 2.359375 -23.546875 L 7.640625 -23.546875 L 18.5 -9.015625 L 18.5 -23.546875 L 24.09375 -23.546875 Z M 24.09375 0 "/></g></g></g><g fill="#22c201" fill-opacity="1"><g transform="translate(243.348219, 234.499525)"><g><path d="M 13.390625 -23.75 C 15.140625 -23.75 16.859375 -23.390625 18.546875 -22.671875 C 20.242188 -21.953125 21.6875 -20.988281 22.875 -19.78125 L 19.40625 -15.671875 C 18.644531 -16.617188 17.734375 -17.363281 16.671875 -17.90625 C 15.609375 -18.457031 14.546875 -18.734375 13.484375 -18.734375 C 11.628906 -18.734375 10.070312 -18.078125 8.8125 -16.765625 C 7.5625 -15.453125 6.9375 -13.832031 6.9375 -11.90625 C 6.9375 -9.9375 7.5625 -8.289062 8.8125 -6.96875 C 10.070312 -5.644531 11.628906 -4.984375 13.484375 -4.984375 C 14.472656 -4.984375 15.5 -5.226562 16.5625 -5.71875 C 17.632812 -6.207031 18.582031 -6.878906 19.40625 -7.734375 L 22.90625 -4.03125 C 21.625 -2.726562 20.113281 -1.6875 18.375 -0.90625 C 16.644531 -0.125 14.914062 0.265625 13.1875 0.265625 C 9.644531 0.265625 6.695312 -0.882812 4.34375 -3.1875 C 1.988281 -5.5 0.8125 -8.382812 0.8125 -11.84375 C 0.8125 -15.226562 2.007812 -18.054688 4.40625 -20.328125 C 6.800781 -22.609375 9.796875 -23.75 13.390625 -23.75 Z M 13.390625 -23.75 "/></g></g></g><g fill="#000000" fill-opacity="1"><g transform="translate(140.340332, 259.02992)"><g><path d="M 3.203125 -7.03125 C 4.109375 -7.03125 4.925781 -6.789062 5.65625 -6.3125 L 5.15625 -5.28125 C 4.445312 -5.707031 3.769531 -5.921875 3.125 -5.921875 C 2.769531 -5.921875 2.488281 -5.859375 2.28125 -5.734375 C 2.082031 -5.609375 1.984375 -5.425781 1.984375 -5.1875 C 1.984375 -4.957031 2.078125 -4.757812 2.265625 -4.59375 C 2.453125 -4.4375 2.679688 -4.316406 2.953125 -4.234375 C 3.234375 -4.160156 3.535156 -4.066406 3.859375 -3.953125 C 4.191406 -3.835938 4.492188 -3.710938 4.765625 -3.578125 C 5.046875 -3.453125 5.273438 -3.25 5.453125 -2.96875 C 5.640625 -2.695312 5.734375 -2.363281 5.734375 -1.96875 C 5.734375 -1.363281 5.488281 -0.875 5 -0.5 C 4.519531 -0.132812 3.890625 0.046875 3.109375 0.046875 C 2.578125 0.046875 2.0625 -0.0507812 1.5625 -0.25 C 1.0625 -0.457031 0.628906 -0.726562 0.265625 -1.0625 L 0.765625 -2.078125 C 1.117188 -1.753906 1.503906 -1.503906 1.921875 -1.328125 C 2.347656 -1.148438 2.75 -1.0625 3.125 -1.0625 C 3.539062 -1.0625 3.863281 -1.132812 4.09375 -1.28125 C 4.320312 -1.4375 4.4375 -1.644531 4.4375 -1.90625 C 4.4375 -2.144531 4.34375 -2.347656 4.15625 -2.515625 C 3.96875 -2.679688 3.734375 -2.800781 3.453125 -2.875 C 3.179688 -2.945312 2.878906 -3.035156 2.546875 -3.140625 C 2.222656 -3.253906 1.921875 -3.375 1.640625 -3.5 C 1.359375 -3.625 1.125 -3.820312 0.9375 -4.09375 C 0.757812 -4.363281 0.671875 -4.691406 0.671875 -5.078125 C 0.671875 -5.671875 0.898438 -6.144531 1.359375 -6.5 C 1.828125 -6.851562 2.441406 -7.03125 3.203125 -7.03125 Z M 3.203125 -7.03125 "/></g></g></g><g fill="#000000" fill-opacity="1"><g transform="translate(150.006984, 259.02992)"><g><path d="M 5.90625 -5.921875 L 2.09375 -5.921875 L 2.09375 -4.03125 L 5.5 -4.03125 L 5.5 -2.984375 L 2.09375 -2.984375 L 2.09375 -1.0625 L 6.015625 -1.0625 L 6.015625 0 L 0.921875 0 L 0.921875 -6.984375 L 5.90625 -6.984375 Z M 5.90625 -5.921875 "/></g></g></g><g fill="#000000" fill-opacity="1"><g transform="translate(160.012818, 259.02992)"><g/></g></g><g fill="#000000" fill-opacity="1"><g transform="translate(166.048234, 259.02992)"><g><path d="M 4 -7.015625 C 4.5 -7.015625 4.984375 -6.914062 5.453125 -6.71875 C 5.921875 -6.53125 6.320312 -6.269531 6.65625 -5.9375 L 5.96875 -5.078125 C 5.71875 -5.347656 5.421875 -5.5625 5.078125 -5.71875 C 4.734375 -5.882812 4.382812 -5.96875 4.03125 -5.96875 C 3.332031 -5.96875 2.738281 -5.726562 2.25 -5.25 C 1.769531 -4.769531 1.53125 -4.191406 1.53125 -3.515625 C 1.53125 -2.816406 1.769531 -2.226562 2.25 -1.75 C 2.738281 -1.28125 3.332031 -1.046875 4.03125 -1.046875 C 4.75 -1.046875 5.394531 -1.320312 5.96875 -1.875 L 6.671875 -1.09375 C 6.304688 -0.738281 5.882812 -0.457031 5.40625 -0.25 C 4.925781 -0.0507812 4.445312 0.046875 3.96875 0.046875 C 2.945312 0.046875 2.085938 -0.289062 1.390625 -0.96875 C 0.691406 -1.65625 0.34375 -2.5 0.34375 -3.5 C 0.34375 -4.488281 0.695312 -5.320312 1.40625 -6 C 2.113281 -6.675781 2.976562 -7.015625 4 -7.015625 Z M 4 -7.015625 "/></g></g></g><g fill="#000000" fill-opacity="1"><g transform="translate(176.463083, 259.02992)"><g><path d="M 1.40625 -6 C 2.113281 -6.675781 2.988281 -7.015625 4.03125 -7.015625 C 5.082031 -7.015625 5.960938 -6.675781 6.671875 -6 C 7.378906 -5.320312 7.734375 -4.484375 7.734375 -3.484375 C 7.734375 -2.492188 7.378906 -1.65625 6.671875 -0.96875 C 5.960938 -0.289062 5.082031 0.046875 4.03125 0.046875 C 2.988281 0.046875 2.113281 -0.289062 1.40625 -0.96875 C 0.695312 -1.65625 0.34375 -2.492188 0.34375 -3.484375 C 0.34375 -4.484375 0.695312 -5.320312 1.40625 -6 Z M 4.046875 -5.953125 C 3.359375 -5.953125 2.765625 -5.710938 2.265625 -5.234375 C 1.773438 -4.765625 1.53125 -4.179688 1.53125 -3.484375 C 1.53125 -2.796875 1.773438 -2.207031 2.265625 -1.71875 C 2.765625 -1.238281 3.359375 -1 4.046875 -1 C 4.734375 -1 5.316406 -1.238281 5.796875 -1.71875 C 6.285156 -2.207031 6.53125 -2.796875 6.53125 -3.484375 C 6.53125 -4.179688 6.285156 -4.765625 5.796875 -5.234375 C 5.316406 -5.710938 4.734375 -5.953125 4.046875 -5.953125 Z M 4.046875 -5.953125 "/></g></g></g><g fill="#000000" fill-opacity="1"><g transform="translate(188.005208, 259.02992)"><g><path d="M 6.203125 -6.125 L 1.96875 -1.0625 L 6.265625 -1.0625 L 6.265625 0 L 0.375 0 L 0.375 -0.84375 L 4.625 -5.921875 L 0.5 -5.921875 L 0.5 -6.984375 L 6.203125 -6.984375 Z M 6.203125 -6.125 "/></g></g></g><g fill="#000000" fill-opacity="1"><g transform="translate(198.1108, 259.02992)"><g><path d="M 2.09375 0 L 0.921875 0 L 0.921875 -6.984375 L 2.09375 -6.984375 Z M 2.09375 0 "/></g></g></g><g fill="#000000" fill-opacity="1"><g transform="translate(204.585155, 259.02992)"><g><path d="M 6.96875 0 L 5.8125 0 L 2.09375 -5 L 2.09375 0 L 0.921875 0 L 0.921875 -6.984375 L 2.078125 -6.984375 L 5.8125 -1.96875 L 5.8125 -6.984375 L 6.96875 -6.984375 Z M 6.96875 0 "/></g></g></g><g fill="#000000" fill-opacity="1"><g transform="translate(215.947724, 259.02992)"><g><path d="M 6.96875 0 L 5.796875 0 L 5.796875 -2.890625 L 2.09375 -2.890625 L 2.09375 0 L 0.921875 0 L 0.921875 -6.984375 L 2.09375 -6.984375 L 2.09375 -3.953125 L 5.796875 -3.953125 L 5.796875 -6.984375 L 6.96875 -6.984375 Z M 6.96875 0 "/></g></g></g><g fill="#000000" fill-opacity="1"><g transform="translate(227.300311, 259.02992)"><g><path d="M 5.421875 -1.578125 L 1.90625 -1.578125 L 1.234375 0 L 0.015625 0 L 3.09375 -6.984375 L 4.296875 -6.984375 L 7.34375 0 L 6.09375 0 Z M 4.96875 -2.625 L 3.65625 -5.71875 L 2.34375 -2.625 Z M 4.96875 -2.625 "/></g></g></g></svg>